<svg width="51" height="53" viewBox="0 0 51 53" fill="none" xmlns="http://www.w3.org/2000/svg">
<path d="M48.476 36L50.5 42.5L24.5 47.5L1.5 52.5L0 45.5L48.476 36Z" fill="#CAB232"/>
<path d="M15.84 18.6C15.46 17.9 14.91 17.37 14.19 17.01C13.49 16.63 12.66 16.44 11.7 16.44C10.04 16.44 8.71 16.99 7.71 18.09C6.71 19.17 6.21 20.62 6.21 22.44C6.21 24.38 6.73 25.9 7.77 27C8.83 28.08 10.28 28.62 12.12 28.62C13.38 28.62 14.44 28.3 15.3 27.66C16.18 27.02 16.82 26.1 17.22 24.9H10.71V21.12H21.87V25.89C21.49 27.17 20.84 28.36 19.92 29.46C19.02 30.56 17.87 31.45 16.47 32.13C15.07 32.81 13.49 33.15 11.73 33.15C9.65 33.15 7.79 32.7 6.15 31.8C4.53 30.88 3.26 29.61 2.34 27.99C1.44 26.37 0.99 24.52 0.99 22.44C0.99 20.36 1.44 18.51 2.34 16.89C3.26 15.25 4.53 13.98 6.15 13.08C7.77 12.16 9.62 11.7 11.7 11.7C14.22 11.7 16.34 12.31 18.06 13.53C19.8 14.75 20.95 16.44 21.51 18.6H15.84ZM36.9516 33L32.5716 25.05H31.3416V33H26.2116V11.94H34.8216C36.4816 11.94 37.8916 12.23 39.0516 12.81C40.2316 13.39 41.1116 14.19 41.6916 15.21C42.2716 16.21 42.5616 17.33 42.5616 18.57C42.5616 19.97 42.1616 21.22 41.3616 22.32C40.5816 23.42 39.4216 24.2 37.8816 24.66L42.7416 33H36.9516ZM31.3416 21.42H34.5216C35.4616 21.42 36.1616 21.19 36.6216 20.73C37.1016 20.27 37.3416 19.62 37.3416 18.78C37.3416 17.98 37.1016 17.35 36.6216 16.89C36.1616 16.43 35.4616 16.2 34.5216 16.2H31.3416V21.42Z" fill="white"/>
</svg>
