<svg width="171" height="171" viewBox="0 0 171 171" fill="none" xmlns="http://www.w3.org/2000/svg">
<circle opacity="0.15" cx="85.5" cy="85.5" r="85.5" fill="#5F5F5F"/>
<path d="M85.5 1.15215e-05C104.705 1.0682e-05 123.351 6.46576 138.433 18.3554C153.514 30.2451 164.154 46.8661 168.638 65.5404C173.121 84.2147 171.187 103.855 163.146 121.295C155.106 138.736 141.428 152.962 124.316 161.681C107.204 170.4 87.6557 173.104 68.8198 169.357C49.9839 165.61 32.9579 155.631 20.4853 141.028C8.0127 126.424 0.8199 108.047 0.0659144 88.8567C-0.688071 69.6666 5.04067 50.7815 16.329 35.2444L85.5 85.5L85.5 1.15215e-05Z" fill="#CAB232"/>
<circle cx="85.8977" cy="83.5116" r="73.1721" fill="#1B1B26"/>
</svg>
