<svg width="171" height="171" viewBox="0 0 171 171" fill="none" xmlns="http://www.w3.org/2000/svg">
<circle opacity="0.15" cx="85.5" cy="85.5" r="85.5" fill="#5F5F5F"/>
<path d="M85.5 1.15215e-05C98.9928 1.09317e-05 112.294 3.19335 124.316 9.31895C136.338 15.4445 146.74 24.3285 154.671 35.2444C162.602 46.1603 167.837 58.7982 169.947 72.1249C172.058 85.4515 170.985 99.0886 166.815 111.921C162.646 124.753 155.498 136.417 145.958 145.958C136.417 155.498 124.753 162.646 111.921 166.815C99.0885 170.985 85.4515 172.058 72.1248 169.947C58.7982 167.837 46.1602 162.602 35.2443 154.671L85.5 85.5L85.5 1.15215e-05Z" fill="#CAB232"/>
<circle cx="85.8977" cy="83.5116" r="73.1721" fill="#1B1B26"/>
</svg>
