<svg width="171" height="171" viewBox="0 0 171 171" fill="none" xmlns="http://www.w3.org/2000/svg">
<circle opacity="0.15" cx="85.5" cy="85.5" r="85.5" fill="#5F5F5F"/>
<path d="M85.5 1.15215e-05C101.268 1.08322e-05 116.729 4.36046 130.174 12.5993C143.618 20.8381 154.522 32.6343 161.681 46.6838C168.84 60.7333 171.974 76.4887 170.736 92.2082C169.499 107.928 163.939 122.999 154.671 135.756C145.403 148.512 132.787 158.457 118.219 164.492C103.652 170.526 87.6988 172.414 72.1249 169.947C56.5509 167.481 41.9624 160.755 29.9722 150.515C17.982 140.274 9.05728 126.917 4.18467 111.921L85.5 85.5L85.5 1.15215e-05Z" fill="#CAB232"/>
<circle cx="85.8977" cy="83.5116" r="73.1721" fill="#1B1B26"/>
</svg>
