<svg width="171" height="171" viewBox="0 0 171 171" fill="none" xmlns="http://www.w3.org/2000/svg">
<circle opacity="0.15" cx="85.5" cy="85.5" r="85.5" fill="#5F5F5F"/>
<path d="M85.5 1.15215e-05C103.556 1.07322e-05 121.148 5.71611 135.756 16.3291C150.363 26.942 161.236 41.9069 166.815 59.0791C172.395 76.2512 172.395 94.7488 166.815 111.921C161.236 129.093 150.363 144.058 135.756 154.671C121.148 165.284 103.556 171 85.5 171C67.4442 171 49.8518 165.284 35.2443 154.671C20.6369 144.058 9.76422 129.093 4.18466 111.921C-1.39489 94.7488 -1.39489 76.2512 4.18467 59.079L85.5 85.5L85.5 1.15215e-05Z" fill="#CAB232"/>
<circle cx="85.8977" cy="83.5116" r="73.1721" fill="#1B1B26"/>
</svg>
