<svg width="171" height="171" viewBox="0 0 171 171" fill="none" xmlns="http://www.w3.org/2000/svg">
<circle opacity="0.15" cx="85.5" cy="85.5" r="85.5" fill="#5F5F5F"/>
<path d="M85.5 1.15215e-05C105.858 1.06316e-05 125.548 7.26395 141.028 20.4853C156.508 33.7066 166.763 52.0177 169.947 72.1249C173.132 92.232 169.038 112.816 158.401 130.174C147.764 147.532 131.282 160.524 111.921 166.815C92.5595 173.106 71.5887 172.282 52.7806 164.492C33.9724 156.701 18.5612 142.455 9.31894 124.316C0.0766852 106.177 -2.39007 85.3358 2.36237 65.5404C7.1148 45.7451 18.7745 28.2951 35.2443 16.3291L85.5 85.5L85.5 1.15215e-05Z" fill="#CAB232"/>
<circle cx="85.8977" cy="83.5116" r="73.1721" fill="#1B1B26"/>
</svg>
